<?xml version="1.0" encoding="utf-8"?>
<!-- Generator: Adobe Illustrator 17.1.0, SVG Export Plug-In . SVG Version: 6.00 Build 0)  -->
<!DOCTYPE svg PUBLIC "-//W3C//DTD SVG 1.1//EN" "http://www.w3.org/Graphics/SVG/1.1/DTD/svg11.dtd">
<svg version="1.1" id="Layer_1" xmlns="http://www.w3.org/2000/svg" xmlns:xlink="http://www.w3.org/1999/xlink" x="0px" y="0px"
	 viewBox="0 0 942.1 401.5" enable-background="new 0 0 942.1 401.5" xml:space="preserve">
<g>
	<path fill="#7B7C7F" d="M382.7,158.9c-1.6-7.2-5.1-14.4-13.5-14.4c-9.3,0-12.9,7.5-12.9,15.7c0,7.9,1.6,10.4,17.1,19.7
		c12.1,7.2,20.3,13.2,20.3,28.4c0,15.4-8.2,27.6-24.7,27.6c-17.4,0-23.7-11.5-25.1-27.1l9.9-1.3c1.3,10.9,3.7,19.1,15.6,19.1
		c8.5,0,14.6-5.7,14.6-17.5c0-12.9-8.4-17.3-18.5-23.2c-11.3-6.6-18.8-11.3-18.8-25.7c0-13.2,8.8-25,22.8-25
		c13.8,0,20.6,9.9,23.1,22.2L382.7,158.9z"/>
	<path fill="#7B7C7F" d="M484.3,219.9c-6.2,9.7-13.5,16-25.4,16c-22.3,0-29.4-20.6-29.4-39.6c0-30.6,16.2-39.7,28.5-39.7
		c11.9,0,18.8,6.2,24.3,16.3l-9,4.6c-3.2-6.2-7.6-11.6-15.1-11.6c-15.3,0-18.4,18.5-18.4,30.3c0,11.9,2.8,30.4,18.4,30.4
		c9,0,13.5-5.4,18.1-12.4L484.3,219.9z"/>
	<path fill="#7B7C7F" d="M522.8,158h26c12.8,0,22.9,6,22.9,20.9c0,9.4-6.3,18.7-15.6,21.5l18.8,31l-8.5,5.1l-19.6-34.7h-14.3v32.8
		h-9.9V158z M545.6,193c9.6,0,15.9-5.4,15.9-14.1c0-6.9-4.1-12.1-12.9-12.1h-15.9V193H545.6z"/>
	<path fill="#7B7C7F" d="M619.7,213.8l-7.2,22.8l-9.7-3.5l24.1-75h12.6l24.1,75l-9.7,3.5l-7.1-22.8H619.7z M633.2,169.5l-10.9,35.4
		h21.8L633.2,169.5z"/>
	<path fill="#7B7C7F" d="M701.2,156.1l5.9,53.8h0.3l12.8-37.6h2.6l12.8,37.6h0.3l6-53.8l10,1.2l-11,79.3h-3.4l-16-47.2l-16,47.2H702
		l-11-79.3L701.2,156.1z"/>
	<path fill="#7B7C7F" d="M790.5,158h9.9v67.8h40.1v8.8h-50V158z"/>
</g>
<path fill="#7B7C7F" d="M291.9,198.4c-0.9,23.8-1.5,42.3-2.2,60.8c-0.4,10.6-6.3,18.6-16.7,20.9c-28.3,6.5-56.7,13.2-85.2,18.4
	c-7.7,1.4-16.4-1.6-24.5-3.4c-21.4-4.7-42.7-9.9-64.1-14.9c-11-2.6-17.4-9.5-18-20.8c-2.5-42.3-3.1-84.5,1.1-126.8
	c0.1-0.8,0.1-1.7,0.2-2.5c1-16.2,5.4-22,21.2-25.7c25.6-6,51.2-11.7,76.9-16.9c4.9-1,10.5,0,15.6,1.1c24.7,5.4,49.3,11,73.8,16.7
	c11.7,2.7,17.2,10.1,17.9,22C289.2,152.9,290.8,178.3,291.9,198.4z M278.2,198.7c-1.2-21.8-2.6-46.4-4-71c-0.2-3.9-1.7-7.2-5.8-8.4
	c-9.7-2.8-19.4-5.9-29.2-8.1c-15.4-3.5-30.8-6.5-46.3-9.5c-3.2-0.6-6.7-1.2-9.8-0.6c-26.8,5.9-53.4,12-80.2,18.2
	c-3.9,0.9-5.9,3.5-6.1,7.4c-1,15.4-2.8,30.9-2.9,46.3c-0.2,27.8,0.6,55.6,1,83.4c0.1,7,1.4,8.8,8.1,10.5
	c17.9,4.4,35.8,8.8,53.8,12.8c16,3.6,31.8,7.1,48.6,2.2c20.9-6.1,42.2-10.5,63.4-15.6c3.8-0.9,6.5-2.9,6.7-7.4
	C276.2,239.8,277.2,220.7,278.2,198.7z"/>
<path fill="#F57E20" d="M128.7,250.5c0-10.6-0.1-20.6,0.1-30.5c0-1.3,1.2-2.7,2.2-3.7c18.9-19.2,37.9-38.3,56.9-57.4
	c1.8-1.8,3.4-2.3,5.5-0.3c9.6,9.4,19.4,18.7,29.2,28.2c-1.7,1.9-2.5,2.9-3.4,3.8c-18.5,18.7-37.1,37.3-55.6,56
	c-2.7,2.7-5.4,4-9.2,3.9C146.1,250.3,137.8,250.5,128.7,250.5z"/>
<path fill="#F57E20" d="M227.1,183.5c-10.3-10.5-19.7-19.9-28.8-29.5c-0.8-0.8-0.8-3.5-0.1-4.4c3-3.7,6.3-7.3,9.8-10.6
	c4.3-4.2,9-4.5,13.3-0.4c6.4,6,12.7,12.3,18.7,18.7c4,4.2,3.9,8,0,12.4C236.1,174.1,231.9,178.4,227.1,183.5z"/>
<g>
	<path fill="#7B7C7F" d="M350.2,265.1l-1.3,4l-1.7-0.6l4.3-13.3h2.2l4.3,13.3l-1.7,0.6l-1.2-4H350.2z M352.6,257.3l-1.9,6.3h3.8
		L352.6,257.3z"/>
	<path fill="#7B7C7F" d="M384.8,255.2h2.2l5.3,11.4l0.1-0.1l-0.2-3.5v-7.9h1.7v13.5h-2.2l-5.3-11.4l-0.1,0.1l0.2,3.5v7.8h-1.7V255.2
		z"/>
	<path fill="#7B7C7F" d="M404,255.2h8.5v1.6h-6.7v4.1h5.5v1.6h-5.5v4.8h6.7v1.6H404V255.2z"/>
	<path fill="#7B7C7F" d="M422.5,254.9l1,9.5h0.1l2.3-6.7h0.5l2.3,6.7h0.1l1.1-9.5l1.8,0.2l-2,14h-0.6l-2.8-8.3l-2.8,8.3h-0.6l-2-14
		L422.5,254.9z"/>
	<path fill="#7B7C7F" d="M459.3,254.9l1,9.5h0.1l2.3-6.7h0.5l2.3,6.7h0.1l1.1-9.5l1.8,0.2l-2,14h-0.6l-2.8-8.3l-2.8,8.3h-0.6l-2-14
		L459.3,254.9z"/>
	<path fill="#7B7C7F" d="M478.8,265.1l-1.3,4l-1.7-0.6l4.3-13.3h2.2l4.3,13.3l-1.7,0.6l-1.2-4H478.8z M481.2,257.3l-1.9,6.3h3.8
		L481.2,257.3z"/>
	<path fill="#7B7C7F" d="M503.2,254.9l1.6,0.9l-4.4,7.8v5.2h-1.7v-5.2l-4.4-7.8l1.6-0.9l3.6,7L503.2,254.9z"/>
	<path fill="#7B7C7F" d="M535.5,256.8h-3.7v-1.6h9.2v1.6h-3.7v12h-1.7V256.8z"/>
	<path fill="#7B7C7F" d="M559.6,262c0,1.1-0.1,7-4.8,7c-2.2,0-4.8-1.6-4.8-7c0-5.4,2.6-7,4.8-7C556.9,255,559.6,256.6,559.6,262z
		 M551.8,262c0,2,0.4,5.4,3,5.4c2.6,0,3-3.4,3-5.4c0-2-0.4-5.4-3-5.4C552.1,256.6,551.8,260,551.8,262z"/>
	<path fill="#7B7C7F" d="M596.3,262c0,1.1-0.1,7-4.8,7c-2.2,0-4.8-1.6-4.8-7c0-5.4,2.6-7,4.8-7C593.7,255,596.3,256.6,596.3,262z
		 M588.5,262c0,2,0.4,5.4,3,5.4c2.6,0,3-3.4,3-5.4c0-2-0.4-5.4-3-5.4C588.9,256.6,588.5,260,588.5,262z"/>
	<path fill="#7B7C7F" d="M606,255.2h4.6c2.3,0,4.1,1.1,4.1,3.7c0,1.7-1.1,3.3-2.8,3.8l3.3,5.5l-1.5,0.9l-3.5-6.1h-2.5v5.8H606V255.2
		z M610,261.4c1.7,0,2.8-1,2.8-2.5c0-1.2-0.7-2.1-2.3-2.1h-2.8v4.6H610z"/>
	<path fill="#7B7C7F" d="M632.9,267.5c-1.1,0.9-2.8,1.5-4.2,1.5c-4,0-5.1-3.7-5.1-7c0-3.3,1.2-7,5.1-7c1.8,0,3.4,1.1,4.3,2.6l-1.5,1
		c-0.7-1.1-1.6-1.9-3-1.9c-2.7,0-3.1,3.4-3.1,5.4c0,2.1,0.5,5.3,3.2,5.3c0.9,0,1.8-0.2,2.5-0.7v-3.6h-3.3v-1.6h5V267.5z"/>
	<path fill="#7B7C7F" d="M644.3,265.1l-1.3,4l-1.7-0.6l4.3-13.3h2.2l4.3,13.3l-1.7,0.6l-1.2-4H644.3z M646.7,257.3l-1.9,6.3h3.8
		L646.7,257.3z"/>
	<path fill="#7B7C7F" d="M660.5,255.2h2.2l5.3,11.4l0.1-0.1l-0.2-3.5v-7.9h1.7v13.5h-2.2l-5.3-11.4l-0.1,0.1l0.2,3.5v7.8h-1.7V255.2
		z"/>
	<path fill="#7B7C7F" d="M680.6,267.2h1.9v-10.4h-1.9v-1.6h5.6v1.6h-1.9v10.4h1.9v1.6h-5.6V267.2z"/>
	<path fill="#7B7C7F" d="M703.8,256.8h-6.3v-1.6h9.2l-7,12h7.3v1.6h-10.2L703.8,256.8z"/>
	<path fill="#7B7C7F" d="M716.5,255.2h8.5v1.6h-6.7v4.1h5.5v1.6h-5.5v4.8h6.7v1.6h-8.5V255.2z"/>
	<path fill="#7B7C7F" d="M752.4,255.2h2.2l5.3,11.4l0.1-0.1l-0.2-3.5v-7.9h1.7v13.5h-2.2l-5.3-11.4l-0.1,0.1l0.2,3.5v7.8h-1.7V255.2
		z"/>
	<path fill="#7B7C7F" d="M780.1,262c0,1.1-0.1,7-4.8,7c-2.2,0-4.8-1.6-4.8-7c0-5.4,2.6-7,4.8-7C777.5,255,780.1,256.6,780.1,262z
		 M772.3,262c0,2,0.4,5.4,3,5.4c2.6,0,3-3.4,3-5.4c0-2-0.4-5.4-3-5.4C772.7,256.6,772.3,260,772.3,262z"/>
	<path fill="#7B7C7F" d="M792.9,256.8h-3.7v-1.6h9.2v1.6h-3.7v12h-1.7V256.8z"/>
	<path fill="#7B7C7F" d="M808.4,255.2h8.5v1.6h-6.7v4.1h5.5v1.6h-5.5v4.8h6.7v1.6h-8.5V255.2z"/>
	<path fill="#7B7C7F" d="M827.7,264.5c0.3,1.7,1.1,2.9,3,2.9c1.4,0,2.5-0.8,2.5-2.3c0-1.7-1.4-2.1-2.7-2.6c-2-0.8-3.8-1.4-3.8-3.9
		c0-2.3,1.8-3.6,4-3.6c2.3,0,3.6,1.3,4.1,3.4l-1.7,0.5c-0.3-1.3-1-2.3-2.5-2.3c-1.1,0-2.2,0.6-2.2,1.8c0,1.3,0.8,1.6,1.8,2.1
		l2.9,1.3c1.2,0.7,1.9,1.8,1.9,3.2c0,2.6-1.8,4-4.3,4c-2.5,0-4.1-1.6-4.5-4L827.7,264.5z"/>
</g>
</svg>
